<?xml version="1.0" encoding="utf-8"?>
<!-- Generator: Adobe Illustrator 23.1.0, SVG Export Plug-In . SVG Version: 6.00 Build 0)  -->
<svg version="1.1" id="Layer_1" xmlns="http://www.w3.org/2000/svg" xmlns:xlink="http://www.w3.org/1999/xlink" x="0px" y="0px"
	 viewBox="0 0 3017 3017.4" style="enable-background:new 0 0 3017 3017.4;" xml:space="preserve">
<g transform="translate(0.000000,4000.000000) scale(0.100000,-0.100000)">
	<path d="M14664,39990.7c-1767-47-3516-409-5162-1068c-3379-1352-6189-3916-7854-7165c-917-1791-1461-3730-1609-5736
		c-52-711-52-1509,0-2220c224-3042,1361-5922,3282-8315c577-719,1274-1437,1978-2040c1638-1403,3580-2449,5640-3040
		c2405-689,4959-766,7410-224c2398,531,4665,1668,6542,3283c312,268,517,459,849,790c539,540,985,1052,1415,1626
		c2221,2964,3268,6594,2963,10280c-246,2980-1377,5811-3259,8160c-584,728-1279,1447-1990,2055c-1776,1520-3895,2615-6150,3176
		c-875,218-1759,354-2676,414c-231,15-884,36-1024,33C14981,39998.7,14821,39994.7,14664,39990.7z M18305,34221.7
		c70-20,83-45,143-280c84-335,179-604,309-880c288-611,753-1178,1322-1610c61-46,144-113,185-150c145-127,198-170,209-170
		c6,0,77-36,158-80c269-144,577-271,863-353c377-109,798-177,1098-177c95,0,133-4,148-14c19-14,19-47,22-1955l3-1941h-23
		c-34,0-284,38-438,66c-1050,193-2006,583-2915,1191l-140,94l-6-3448c-6-3665-3-3472-49-3814c-118-886-423-1696-925-2454
		c-595-900-1375-1587-2320-2046c-1035-502-2098-692-3215-574c-975,104-1856,419-2650,948c-287,192-631,467-810,647
		c-41,42-129,124-195,182c-315,276-530,547-824,1038c-454,755-708,1517-810,2425c-66,581-38,1162,84,1782c148,748,434,1446,850,2073
		c705,1065,1685,1850,2870,2300c551,209,1024,314,1585,351c392,25,1248-19,1301-67c18-17,19-70,19-1618c0-881-4-1607-9-1614
		c-6-11-38-6-160,22c-199,47-319,65-512,75c-484,25-897-58-1314-264c-702-345-1215-951-1411-1664c-72-263-104-499-104-775
		c0-526,140-986,445-1459c70-108,100-146,149-184c33-26,129-115,211-198c226-225,418-362,710-506c265-131,551-214,870-255
		c156-20,466-22,615-5c1016,118,1880,817,2210,1789c39,116,73,247,107,412c16,80,18,462,23,6585c4,5236,7,6504,18,6522
		c15,27,45,44,92,54C16150,34233.7,18264,34232.7,18305,34221.7z"/>
</g>
</svg>
