<?xml version="1.0" standalone="no"?>
<!DOCTYPE svg PUBLIC "-//W3C//DTD SVG 20010904//EN"
 "http://www.w3.org/TR/2001/REC-SVG-20010904/DTD/svg10.dtd">
<svg version="1.0" xmlns="http://www.w3.org/2000/svg"
 width="2048.000000pt" height="2048.000000pt" viewBox="0 0 2048.000000 2048.000000"
 preserveAspectRatio="xMidYMid meet">

<g transform="translate(0.000000,2048.000000) scale(0.100000,-0.100000)"
fill="#000000" stroke="none">
<path d="M9480 20459 c-1709 -146 -3298 -668 -4655 -1527 -247 -157 -282 -180
-475 -316 -188 -131 -263 -188 -470 -350 -518 -406 -1031 -907 -1516 -1481
-360 -426 -779 -1036 -1071 -1559 -681 -1217 -1101 -2560 -1243 -3966 -43
-428 -50 -565 -50 -1016 0 -496 20 -814 81 -1299 232 -1828 951 -3549 2095
-5010 270 -345 491 -594 833 -935 503 -503 994 -907 1576 -1297 798 -534 1756
-984 2698 -1268 732 -219 1439 -347 2332 -420 201 -16 997 -19 1183 -5 230 19
715 69 865 90 773 111 1498 297 2232 575 1077 407 2141 1044 3030 1813 1506
1303 2602 3008 3150 4902 168 579 297 1246 350 1800 45 466 48 534 52 971 4
457 -7 695 -52 1134 -156 1506 -645 2961 -1428 4254 -545 900 -1256 1738
-2080 2452 -1143 991 -2547 1736 -4009 2128 -653 175 -1229 272 -1975 331
-346 27 -1128 27 -1453 -1z m-1581 -4252 c19 -29 161 -236 316 -462 155 -225
529 -770 832 -1210 1620 -2358 1845 -2685 1851 -2685 8 0 108 115 577 660 327
380 497 578 1131 1315 580 675 755 878 899 1045 83 96 234 272 336 390 101
118 337 392 523 608 l338 392 514 0 c283 0 514 -2 514 -5 0 -6 -292 -347 -720
-844 -135 -156 -274 -318 -310 -361 -36 -42 -133 -155 -216 -251 -82 -96 -218
-253 -300 -349 -83 -96 -252 -292 -375 -435 -122 -143 -304 -354 -404 -469
-99 -115 -196 -228 -215 -251 -19 -23 -116 -136 -215 -250 -99 -114 -209 -243
-245 -285 -36 -42 -133 -155 -215 -251 -83 -96 -220 -255 -305 -354 -497 -577
-660 -767 -705 -820 -27 -32 -69 -80 -92 -105 -24 -26 -43 -54 -43 -63 0 -8
91 -147 203 -309 111 -162 282 -411 380 -553 190 -277 470 -684 1852 -2695
478 -696 1176 -1713 1552 -2260 376 -547 700 -1020 720 -1050 21 -30 40 -58
41 -62 2 -4 -784 -8 -1746 -8 l-1750 0 -120 173 c-65 94 -422 613 -792 1152
-1743 2538 -2041 2971 -2147 3124 -63 90 -121 177 -129 193 -8 16 -19 26 -25
22 -9 -5 -71 -77 -404 -464 -55 -65 -181 -211 -280 -325 -99 -114 -196 -227
-215 -250 -19 -23 -116 -136 -215 -250 -99 -114 -209 -243 -245 -285 -36 -42
-132 -155 -215 -250 -82 -96 -208 -242 -280 -325 -71 -84 -251 -292 -400 -465
-148 -172 -299 -347 -335 -390 -36 -42 -135 -157 -220 -256 -345 -399 -747
-867 -1010 -1174 -101 -118 -189 -218 -195 -222 -12 -9 -1035 -11 -1035 -2 0
3 33 43 73 88 39 45 106 122 148 171 41 50 147 173 235 275 88 102 285 331
439 510 154 179 365 424 469 545 104 121 308 357 452 525 144 168 421 490 615
716 195 226 530 615 744 864 611 711 1366 1588 1401 1630 11 14 4 29 -50 105
-34 50 -369 536 -743 1080 -1082 1575 -1600 2330 -3351 4878 -238 346 -432
630 -432 633 0 2 789 4 1753 3 l1752 0 34 -52z"/>
<path d="M5770 15475 c0 -3 17 -29 39 -58 21 -29 279 -396 573 -817 608 -870
1060 -1516 1723 -2465 500 -715 974 -1393 1545 -2210 477 -683 1046 -1496
1615 -2310 832 -1190 1037 -1483 1429 -2045 213 -305 397 -563 408 -572 19
-17 72 -18 810 -18 l789 0 -33 48 c-17 26 -414 594 -882 1262 -1011 1447
-1718 2457 -2541 3635 -334 479 -836 1196 -1115 1595 -657 941 -1617 2312
-2129 3045 -222 319 -457 654 -521 745 l-116 165 -797 3 c-438 1 -797 0 -797
-3z"/>
</g>
</svg>
